999
"DXF R12 Output" (www.mydxf.blogspot.com)
 0 
SECTION
 2 
HEADER
 9 
$ACADVER
 1 
AC1009
 9 
$EXTMIN
 10 
 0 
 20 
 0 
 9 
$EXTMAX
 10 
 8.5 
 20 
 11 
 0 
ENDSEC
 0 
SECTION
 2 
ENTITIES
0
LINE
8
Make2D$Sichtbar$Kurven
10
61.705941
20
152.377718
11
84.149194
21
289.529054
0
LINE
8
Make2D$Sichtbar$Kurven
10
61.705941
20
152.377718
11
61.161980
21
150.717882
0
LINE
8
Make2D$Sichtbar$Kurven
10
61.161980
20
150.717882
11
60.714838
21
150.065803
0
LINE
8
Make2D$Sichtbar$Kurven
10
60.714838
20
150.065803
11
60.150923
21
149.532284
0
LINE
8
Make2D$Sichtbar$Kurven
10
60.150923
20
149.532284
11
59.470234
21
149.117325
0
LINE
8
Make2D$Sichtbar$Kurven
10
59.470234
20
149.117325
11
58.672771
21
148.820926
0
LINE
8
Make2D$Sichtbar$Kurven
10
58.672771
20
148.820926
11
56.727524
21
148.583807
0
LINE
8
Make2D$Sichtbar$Kurven
10
20.847296
20
148.583807
11
56.727524
21
148.583807
0
LINE
8
Make2D$Sichtbar$Kurven
10
15.817571
20
153.008042
11
15.817571
21
290.159380
0
LINE
8
Make2D$Sichtbar$Kurven
10
20.847296
20
148.583807
11
19.668454
21
148.652935
0
LINE
8
Make2D$Sichtbar$Kurven
10
19.668454
20
148.652935
11
18.646791
21
148.860321
0
LINE
8
Make2D$Sichtbar$Kurven
10
18.646791
20
148.860321
11
17.782307
21
149.205965
0
LINE
8
Make2D$Sichtbar$Kurven
10
17.782307
20
149.205965
11
17.075002
21
149.689865
0
LINE
8
Make2D$Sichtbar$Kurven
10
17.075002
20
149.689865
11
16.524876
21
150.312023
0
LINE
8
Make2D$Sichtbar$Kurven
10
16.524876
20
150.312023
11
16.131929
21
151.072439
0
LINE
8
Make2D$Sichtbar$Kurven
10
16.131929
20
151.072439
11
15.896160
21
151.971112
0
LINE
8
Make2D$Sichtbar$Kurven
10
15.896160
20
151.971112
11
15.817571
21
153.008042
0
LINE
8
Make2D$Sichtbar$Kurven
10
79.170774
20
294.583616
11
80.518524
21
294.504639
0
LINE
8
Make2D$Sichtbar$Kurven
10
80.518524
20
294.504639
11
81.659003
21
294.267706
0
LINE
8
Make2D$Sichtbar$Kurven
10
81.659003
20
294.267706
11
82.592212
21
293.872819
0
LINE
8
Make2D$Sichtbar$Kurven
10
82.592212
20
293.872819
11
83.318150
21
293.319976
0
LINE
8
Make2D$Sichtbar$Kurven
10
83.318150
20
293.319976
11
83.836817
21
292.609178
0
LINE
8
Make2D$Sichtbar$Kurven
10
83.836817
20
292.609178
11
84.148213
21
291.740425
0
LINE
8
Make2D$Sichtbar$Kurven
10
84.148213
20
291.740425
11
84.252339
21
290.713717
0
LINE
8
Make2D$Sichtbar$Kurven
10
84.252339
20
290.713717
11
84.149194
21
289.529054
0
LINE
8
Make2D$Sichtbar$Kurven
10
20.847296
20
294.583616
11
79.170774
21
294.583616
0
LINE
8
Make2D$Sichtbar$Kurven
10
15.817571
20
290.159380
11
15.896160
21
291.196311
0
LINE
8
Make2D$Sichtbar$Kurven
10
15.896160
20
291.196311
11
16.131929
21
292.094984
0
LINE
8
Make2D$Sichtbar$Kurven
10
16.131929
20
292.094984
11
16.524876
21
292.855399
0
LINE
8
Make2D$Sichtbar$Kurven
10
16.524876
20
292.855399
11
17.075002
21
293.477557
0
LINE
8
Make2D$Sichtbar$Kurven
10
17.075002
20
293.477557
11
17.782307
21
293.961458
0
LINE
8
Make2D$Sichtbar$Kurven
10
17.782307
20
293.961458
11
18.646791
21
294.307102
0
LINE
8
Make2D$Sichtbar$Kurven
10
18.646791
20
294.307102
11
19.668454
21
294.514488
0
LINE
8
Make2D$Sichtbar$Kurven
10
19.668454
20
294.514488
11
20.847296
21
294.583616
0
LINE
8
Make2D$Sichtbar$Kurven
10
104.682275
20
233.531862
11
104.588525
21
232.875613
0
LINE
8
Make2D$Sichtbar$Kurven
10
104.588525
20
232.875613
11
104.307275
21
232.406863
0
LINE
8
Make2D$Sichtbar$Kurven
10
104.307275
20
232.406863
11
103.838526
21
232.125614
0
LINE
8
Make2D$Sichtbar$Kurven
10
103.838526
20
232.125614
11
103.182277
21
232.031864
0
LINE
8
Make2D$Sichtbar$Kurven
10
103.182277
20
232.031864
11
102.526028
21
232.125614
0
LINE
8
Make2D$Sichtbar$Kurven
10
102.526028
20
232.125614
11
102.057278
21
232.406863
0
LINE
8
Make2D$Sichtbar$Kurven
10
102.057278
20
232.406863
11
101.776029
21
232.875613
0
LINE
8
Make2D$Sichtbar$Kurven
10
101.776029
20
232.875613
11
101.682279
21
233.531862
0
LINE
8
Make2D$Sichtbar$Kurven
10
101.682279
20
233.531862
11
101.776029
21
234.188111
0
LINE
8
Make2D$Sichtbar$Kurven
10
101.776029
20
234.188111
11
102.057278
21
234.656860
0
LINE
8
Make2D$Sichtbar$Kurven
10
102.057278
20
234.656860
11
102.526028
21
234.938110
0
LINE
8
Make2D$Sichtbar$Kurven
10
102.526028
20
234.938110
11
103.182277
21
235.031859
0
LINE
8
Make2D$Sichtbar$Kurven
10
103.182277
20
235.031859
11
103.838526
21
234.938110
0
LINE
8
Make2D$Sichtbar$Kurven
10
103.838526
20
234.938110
11
104.307275
21
234.656860
0
LINE
8
Make2D$Sichtbar$Kurven
10
104.307275
20
234.656860
11
104.588525
21
234.188111
0
LINE
8
Make2D$Sichtbar$Kurven
10
104.588525
20
234.188111
11
104.682275
21
233.531862
0
LINE
8
Make2D$Sichtbar$Kurven
10
124.182251
20
271.531812
11
124.182251
21
237.531857
0
LINE
8
Make2D$Sichtbar$Kurven
10
81.182306
20
233.531862
11
81.182306
21
229.531867
0
LINE
8
Make2D$Sichtbar$Kurven
10
81.182306
20
229.531867
11
124.182251
21
229.531867
0
LINE
8
Make2D$Sichtbar$Kurven
10
81.182306
20
237.531857
11
81.182306
21
233.531862
0
LINE
8
Make2D$Sichtbar$Kurven
10
124.182251
20
237.531857
11
81.182306
21
237.531857
0
LINE
8
Make2D$Sichtbar$Kurven
10
125.182250
20
283.531799
11
125.182250
21
271.531812
0
LINE
8
Make2D$Sichtbar$Kurven
10
125.182250
20
171.531939
11
125.182250
21
159.531955
0
LINE
8
Make2D$Sichtbar$Kurven
10
124.182251
20
171.531939
11
124.182251
21
159.531955
0
LINE
8
Make2D$Sichtbar$Kurven
10
124.182251
20
283.531799
11
124.182251
21
271.531812
0
LINE
8
Make2D$Sichtbar$Kurven
10
125.182250
20
159.531955
11
125.104125
21
158.360081
0
LINE
8
Make2D$Sichtbar$Kurven
10
125.104125
20
158.360081
11
124.869750
21
157.344457
0
LINE
8
Make2D$Sichtbar$Kurven
10
124.869750
20
157.344457
11
124.479126
21
156.485083
0
LINE
8
Make2D$Sichtbar$Kurven
10
124.479126
20
156.485083
11
123.932251
21
155.781959
0
LINE
8
Make2D$Sichtbar$Kurven
10
123.932251
20
155.781959
11
123.229127
21
155.235085
0
LINE
8
Make2D$Sichtbar$Kurven
10
123.229127
20
155.235085
11
122.369753
21
154.844460
0
LINE
8
Make2D$Sichtbar$Kurven
10
122.369753
20
154.844460
11
121.354129
21
154.610085
0
LINE
8
Make2D$Sichtbar$Kurven
10
121.354129
20
154.610085
11
120.182256
21
154.531960
0
LINE
8
Make2D$Sichtbar$Kurven
10
68.850307
20
160.244307
11
68.801423
21
159.147525
0
LINE
8
Make2D$Sichtbar$Kurven
10
68.801423
20
159.147525
11
68.980126
21
158.117538
0
LINE
8
Make2D$Sichtbar$Kurven
10
68.980126
20
158.117538
11
69.386417
21
157.154347
0
LINE
8
Make2D$Sichtbar$Kurven
10
69.386417
20
157.154347
11
70.020296
21
156.257952
0
LINE
8
Make2D$Sichtbar$Kurven
10
70.020296
20
156.257952
11
70.817236
21
155.502831
0
LINE
8
Make2D$Sichtbar$Kurven
10
70.817236
20
155.502831
11
71.712717
21
154.963458
0
LINE
8
Make2D$Sichtbar$Kurven
10
71.712717
20
154.963458
11
72.706737
21
154.639835
0
LINE
8
Make2D$Sichtbar$Kurven
10
72.706737
20
154.639835
11
73.799297
21
154.531960
0
LINE
8
Make2D$Sichtbar$Kurven
10
73.799297
20
154.531960
11
120.182256
21
154.531960
0
LINE
8
Make2D$Sichtbar$Kurven
10
120.182256
20
288.531791
11
121.354129
21
288.453666
0
LINE
8
Make2D$Sichtbar$Kurven
10
121.354129
20
288.453666
11
122.369753
21
288.219291
0
LINE
8
Make2D$Sichtbar$Kurven
10
122.369753
20
288.219291
11
123.229127
21
287.828667
0
LINE
8
Make2D$Sichtbar$Kurven
10
123.229127
20
287.828667
11
123.932251
21
287.281793
0
LINE
8
Make2D$Sichtbar$Kurven
10
123.932251
20
287.281793
11
124.479126
21
286.578669
0
LINE
8
Make2D$Sichtbar$Kurven
10
124.479126
20
286.578669
11
124.869750
21
285.719296
0
LINE
8
Make2D$Sichtbar$Kurven
10
124.869750
20
285.719296
11
125.104125
21
284.703672
0
LINE
8
Make2D$Sichtbar$Kurven
10
125.104125
20
284.703672
11
125.182250
21
283.531799
0
LINE
8
Make2D$Sichtbar$Kurven
10
91.647760
20
288.531791
11
89.714012
21
288.263813
0
LINE
8
Make2D$Sichtbar$Kurven
10
89.714012
20
288.263813
11
88.921263
21
287.928842
0
LINE
8
Make2D$Sichtbar$Kurven
10
88.921263
20
287.928842
11
88.244598
21
287.459881
0
LINE
8
Make2D$Sichtbar$Kurven
10
88.244598
20
287.459881
11
87.684016
21
286.856932
0
LINE
8
Make2D$Sichtbar$Kurven
10
87.684016
20
286.856932
11
87.239518
21
286.119994
0
LINE
8
Make2D$Sichtbar$Kurven
10
87.239518
20
286.119994
11
86.698772
21
284.244152
0
LINE
8
Make2D$Sichtbar$Kurven
10
120.182256
20
288.531791
11
91.647760
21
288.531791
0
LINE
8
Make2D$Sichtbar$Kurven
10
86.698772
20
284.244152
11
68.850307
21
160.244307
0
LINE
8
Make2D$Sichtbar$Kurven
10
124.182251
20
159.531955
11
123.932251
21
157.781957
0
LINE
8
Make2D$Sichtbar$Kurven
10
123.932251
20
157.781957
11
123.619751
21
157.094458
0
LINE
8
Make2D$Sichtbar$Kurven
10
123.619751
20
157.094458
11
123.182252
21
156.531959
0
LINE
8
Make2D$Sichtbar$Kurven
10
123.182252
20
156.531959
11
122.619753
21
156.094459
0
LINE
8
Make2D$Sichtbar$Kurven
10
122.619753
20
156.094459
11
121.932254
21
155.781960
0
LINE
8
Make2D$Sichtbar$Kurven
10
121.932254
20
155.781960
11
120.182256
21
155.531960
0
LINE
8
Make2D$Sichtbar$Kurven
10
69.840107
20
160.101837
11
69.801000
21
159.224411
0
LINE
8
Make2D$Sichtbar$Kurven
10
69.801000
20
159.224411
11
69.943962
21
158.400421
0
LINE
8
Make2D$Sichtbar$Kurven
10
69.943962
20
158.400421
11
70.268994
21
157.629868
0
LINE
8
Make2D$Sichtbar$Kurven
10
70.268994
20
157.629868
11
70.776095
21
156.912752
0
LINE
8
Make2D$Sichtbar$Kurven
10
70.776095
20
156.912752
11
71.413649
21
156.308656
0
LINE
8
Make2D$Sichtbar$Kurven
10
71.413649
20
156.308656
11
72.130033
21
155.877158
0
LINE
8
Make2D$Sichtbar$Kurven
10
72.130033
20
155.877158
11
72.925250
21
155.618259
0
LINE
8
Make2D$Sichtbar$Kurven
10
72.925250
20
155.618259
11
73.799297
21
155.531960
0
LINE
8
Make2D$Sichtbar$Kurven
10
73.799297
20
155.531960
11
120.182256
21
155.531960
0
LINE
8
Make2D$Sichtbar$Kurven
10
120.182256
20
287.531794
11
121.932254
21
287.281794
0
LINE
8
Make2D$Sichtbar$Kurven
10
121.932254
20
287.281794
11
122.619753
21
286.969295
0
LINE
8
Make2D$Sichtbar$Kurven
10
122.619753
20
286.969295
11
123.182252
21
286.531795
0
LINE
8
Make2D$Sichtbar$Kurven
10
123.182252
20
286.531795
11
123.619751
21
285.969296
0
LINE
8
Make2D$Sichtbar$Kurven
10
123.619751
20
285.969296
11
123.932251
21
285.281797
0
LINE
8
Make2D$Sichtbar$Kurven
10
123.932251
20
285.281797
11
124.182251
21
283.531799
0
LINE
8
Make2D$Sichtbar$Kurven
10
91.647760
20
287.531794
11
90.100762
21
287.317412
0
LINE
8
Make2D$Sichtbar$Kurven
10
90.100762
20
287.317412
11
88.925230
21
286.674266
0
LINE
8
Make2D$Sichtbar$Kurven
10
88.925230
20
286.674266
11
88.121166
21
285.602356
0
LINE
8
Make2D$Sichtbar$Kurven
10
88.121166
20
285.602356
11
87.688569
21
284.101682
0
LINE
8
Make2D$Sichtbar$Kurven
10
120.182256
20
287.531794
11
91.647760
21
287.531794
0
LINE
8
Make2D$Sichtbar$Kurven
10
87.688569
20
284.101682
11
69.840107
21
160.101837
0
LINE
8
Make2D$Sichtbar$Kurven
10
124.182251
20
229.531867
11
124.182251
21
171.531939
0
LINE
8
Make2D$Sichtbar$Kurven
10
125.182250
20
271.531812
11
125.182250
21
171.531939
0
LINE
8
Make2D$Sichtbar$Kurven
10
130.182244
20
152.956207
11
130.103655
21
151.919277
0
LINE
8
Make2D$Sichtbar$Kurven
10
130.103655
20
151.919277
11
129.867886
21
151.020603
0
LINE
8
Make2D$Sichtbar$Kurven
10
129.867886
20
151.020603
11
129.474939
21
150.260187
0
LINE
8
Make2D$Sichtbar$Kurven
10
129.474939
20
150.260187
11
128.924812
21
149.638029
0
LINE
8
Make2D$Sichtbar$Kurven
10
128.924812
20
149.638029
11
128.217507
21
149.154128
0
LINE
8
Make2D$Sichtbar$Kurven
10
128.217507
20
149.154128
11
127.353022
21
148.808484
0
LINE
8
Make2D$Sichtbar$Kurven
10
127.353022
20
148.808484
11
126.331359
21
148.601098
0
LINE
8
Make2D$Sichtbar$Kurven
10
126.331359
20
148.601098
11
125.152516
21
148.531969
0
LINE
8
Make2D$Sichtbar$Kurven
10
125.152516
20
148.531969
11
66.829038
21
148.531969
0
LINE
8
Make2D$Sichtbar$Kurven
10
66.829038
20
148.531969
11
65.481289
21
148.610947
0
LINE
8
Make2D$Sichtbar$Kurven
10
65.481289
20
148.610947
11
64.340810
21
148.847880
0
LINE
8
Make2D$Sichtbar$Kurven
10
64.340810
20
148.847880
11
63.407602
21
149.242768
0
LINE
8
Make2D$Sichtbar$Kurven
10
63.407602
20
149.242768
11
62.681665
21
149.795611
0
LINE
8
Make2D$Sichtbar$Kurven
10
62.681665
20
149.795611
11
62.162998
21
150.506409
0
LINE
8
Make2D$Sichtbar$Kurven
10
62.162998
20
150.506409
11
61.851601
21
151.375162
0
LINE
8
Make2D$Sichtbar$Kurven
10
61.851601
20
151.375162
11
61.747476
21
152.401870
0
LINE
8
Make2D$Sichtbar$Kurven
10
61.747476
20
152.401870
11
61.850621
21
153.586534
0
LINE
8
Make2D$Sichtbar$Kurven
10
125.152516
20
294.531782
11
126.331359
21
294.462653
0
LINE
8
Make2D$Sichtbar$Kurven
10
126.331359
20
294.462653
11
127.353022
21
294.255267
0
LINE
8
Make2D$Sichtbar$Kurven
10
127.353022
20
294.255267
11
128.217507
21
293.909623
0
LINE
8
Make2D$Sichtbar$Kurven
10
128.217507
20
293.909623
11
128.924812
21
293.425722
0
LINE
8
Make2D$Sichtbar$Kurven
10
128.924812
20
293.425722
11
129.474939
21
292.803564
0
LINE
8
Make2D$Sichtbar$Kurven
10
129.474939
20
292.803564
11
129.867886
21
292.043148
0
LINE
8
Make2D$Sichtbar$Kurven
10
129.867886
20
292.043148
11
130.103655
21
291.144475
0
LINE
8
Make2D$Sichtbar$Kurven
10
130.103655
20
291.144475
11
130.182244
21
290.107544
0
LINE
8
Make2D$Sichtbar$Kurven
10
130.182244
20
290.107544
11
130.182244
21
152.956207
0
LINE
8
Make2D$Sichtbar$Kurven
10
125.152516
20
294.531782
11
89.272289
21
294.531782
0
LINE
8
Make2D$Sichtbar$Kurven
10
84.293871
20
290.737871
11
84.837834
21
292.397707
0
LINE
8
Make2D$Sichtbar$Kurven
10
84.837834
20
292.397707
11
85.284975
21
293.049785
0
LINE
8
Make2D$Sichtbar$Kurven
10
85.284975
20
293.049785
11
85.848891
21
293.583304
0
LINE
8
Make2D$Sichtbar$Kurven
10
85.848891
20
293.583304
11
86.529580
21
293.998263
0
LINE
8
Make2D$Sichtbar$Kurven
10
86.529580
20
293.998263
11
87.327042
21
294.294662
0
LINE
8
Make2D$Sichtbar$Kurven
10
87.327042
20
294.294662
11
89.272289
21
294.531782
0
LINE
8
Make2D$Sichtbar$Kurven
10
84.293871
20
290.737871
11
61.850621
21
153.586534
0
LINE
8
Make2D$Sichtbar$Kurven
10
84.314292
20
6.210662
11
61.871041
21
143.362004
0
LINE
8
Make2D$Sichtbar$Kurven
10
84.314292
20
6.210662
11
84.858254
21
4.550827
0
LINE
8
Make2D$Sichtbar$Kurven
10
84.858254
20
4.550827
11
85.305396
21
3.898749
0
LINE
8
Make2D$Sichtbar$Kurven
10
85.305396
20
3.898749
11
85.869311
21
3.365231
0
LINE
8
Make2D$Sichtbar$Kurven
10
85.869311
20
3.365231
11
86.550000
21
2.950272
0
LINE
8
Make2D$Sichtbar$Kurven
10
86.550000
20
2.950272
11
87.347463
21
2.653873
0
LINE
8
Make2D$Sichtbar$Kurven
10
87.347463
20
2.653873
11
89.292709
21
2.416754
0
LINE
8
Make2D$Sichtbar$Kurven
10
125.172937
20
2.416754
11
89.292709
21
2.416754
0
LINE
8
Make2D$Sichtbar$Kurven
10
130.202665
20
6.841005
11
130.202665
21
143.992331
0
LINE
8
Make2D$Sichtbar$Kurven
10
125.172937
20
2.416754
11
126.351779
21
2.485883
0
LINE
8
Make2D$Sichtbar$Kurven
10
126.351779
20
2.485883
11
127.373443
21
2.693270
0
LINE
8
Make2D$Sichtbar$Kurven
10
127.373443
20
2.693270
11
128.237927
21
3.038914
0
LINE
8
Make2D$Sichtbar$Kurven
10
128.237927
20
3.038914
11
128.945233
21
3.522817
0
LINE
8
Make2D$Sichtbar$Kurven
10
128.945233
20
3.522817
11
129.495359
21
4.144977
0
LINE
8
Make2D$Sichtbar$Kurven
10
129.495359
20
4.144977
11
129.888307
21
4.905395
0
LINE
8
Make2D$Sichtbar$Kurven
10
129.888307
20
4.905395
11
130.124075
21
5.804071
0
LINE
8
Make2D$Sichtbar$Kurven
10
130.124075
20
5.804071
11
130.202665
21
6.841005
0
LINE
8
Make2D$Sichtbar$Kurven
10
66.849459
20
148.416569
11
65.501709
21
148.337591
0
LINE
8
Make2D$Sichtbar$Kurven
10
65.501709
20
148.337591
11
64.361231
21
148.100659
0
LINE
8
Make2D$Sichtbar$Kurven
10
64.361231
20
148.100659
11
63.428023
21
147.705771
0
LINE
8
Make2D$Sichtbar$Kurven
10
63.428023
20
147.705771
11
62.702085
21
147.152928
0
LINE
8
Make2D$Sichtbar$Kurven
10
62.702085
20
147.152928
11
62.183418
21
146.442130
0
LINE
8
Make2D$Sichtbar$Kurven
10
62.183418
20
146.442130
11
61.872022
21
145.573376
0
LINE
8
Make2D$Sichtbar$Kurven
10
61.872022
20
145.573376
11
61.767896
21
144.546668
0
LINE
8
Make2D$Sichtbar$Kurven
10
61.767896
20
144.546668
11
61.871041
21
143.362004
0
LINE
8
Make2D$Sichtbar$Kurven
10
125.172937
20
148.416569
11
66.849459
21
148.416569
0
LINE
8
Make2D$Sichtbar$Kurven
10
130.202665
20
143.992331
11
130.124075
21
145.029262
0
LINE
8
Make2D$Sichtbar$Kurven
10
130.124075
20
145.029262
11
129.888307
21
145.927935
0
LINE
8
Make2D$Sichtbar$Kurven
10
129.888307
20
145.927935
11
129.495359
21
146.688351
0
LINE
8
Make2D$Sichtbar$Kurven
10
129.495359
20
146.688351
11
128.945233
21
147.310509
0
LINE
8
Make2D$Sichtbar$Kurven
10
128.945233
20
147.310509
11
128.237927
21
147.794410
0
LINE
8
Make2D$Sichtbar$Kurven
10
128.237927
20
147.794410
11
127.373443
21
148.140054
0
LINE
8
Make2D$Sichtbar$Kurven
10
127.373443
20
148.140054
11
126.351779
21
148.347440
0
LINE
8
Make2D$Sichtbar$Kurven
10
126.351779
20
148.347440
11
125.172937
21
148.416569
0
LINE
8
Make2D$Sichtbar$Kurven
10
125.202671
20
25.416716
11
125.202671
21
125.416599
0
LINE
8
Make2D$Sichtbar$Kurven
10
124.202671
20
67.416672
11
124.202671
21
125.416599
0
LINE
8
Make2D$Sichtbar$Kurven
10
87.708989
20
12.846854
11
69.860527
21
136.846701
0
LINE
8
Make2D$Sichtbar$Kurven
10
120.202676
20
9.416747
11
91.668180
21
9.416747
0
LINE
8
Make2D$Sichtbar$Kurven
10
91.668180
20
9.416747
11
90.121182
21
9.631129
0
LINE
8
Make2D$Sichtbar$Kurven
10
90.121182
20
9.631129
11
88.945651
21
10.274274
0
LINE
8
Make2D$Sichtbar$Kurven
10
88.945651
20
10.274274
11
88.141587
21
11.346182
0
LINE
8
Make2D$Sichtbar$Kurven
10
88.141587
20
11.346182
11
87.708989
21
12.846854
0
LINE
8
Make2D$Sichtbar$Kurven
10
120.202676
20
9.416747
11
121.952674
21
9.666746
0
LINE
8
Make2D$Sichtbar$Kurven
10
121.952674
20
9.666746
11
122.640173
21
9.979246
0
LINE
8
Make2D$Sichtbar$Kurven
10
122.640173
20
9.979246
11
123.202672
21
10.416745
0
LINE
8
Make2D$Sichtbar$Kurven
10
123.202672
20
10.416745
11
123.640172
21
10.979244
0
LINE
8
Make2D$Sichtbar$Kurven
10
123.640172
20
10.979244
11
123.952671
21
11.666743
0
LINE
8
Make2D$Sichtbar$Kurven
10
123.952671
20
11.666743
11
124.202671
21
13.416739
0
LINE
8
Make2D$Sichtbar$Kurven
10
73.819718
20
141.416579
11
120.202676
21
141.416579
0
LINE
8
Make2D$Sichtbar$Kurven
10
69.860527
20
136.846701
11
69.821420
21
137.724127
0
LINE
8
Make2D$Sichtbar$Kurven
10
69.821420
20
137.724127
11
69.964383
21
138.548117
0
LINE
8
Make2D$Sichtbar$Kurven
10
69.964383
20
138.548117
11
70.289414
21
139.318670
0
LINE
8
Make2D$Sichtbar$Kurven
10
70.289414
20
139.318670
11
70.796516
21
140.035786
0
LINE
8
Make2D$Sichtbar$Kurven
10
70.796516
20
140.035786
11
71.434069
21
140.639883
0
LINE
8
Make2D$Sichtbar$Kurven
10
71.434069
20
140.639883
11
72.150454
21
141.071380
0
LINE
8
Make2D$Sichtbar$Kurven
10
72.150454
20
141.071380
11
72.945670
21
141.330279
0
LINE
8
Make2D$Sichtbar$Kurven
10
72.945670
20
141.330279
11
73.819718
21
141.416579
0
LINE
8
Make2D$Sichtbar$Kurven
10
124.202671
20
137.416584
11
123.952671
21
139.166581
0
LINE
8
Make2D$Sichtbar$Kurven
10
123.952671
20
139.166581
11
123.640172
21
139.854081
0
LINE
8
Make2D$Sichtbar$Kurven
10
123.640172
20
139.854081
11
123.202672
21
140.416580
0
LINE
8
Make2D$Sichtbar$Kurven
10
123.202672
20
140.416580
11
122.640173
21
140.854079
0
LINE
8
Make2D$Sichtbar$Kurven
10
122.640173
20
140.854079
11
121.952674
21
141.166579
0
LINE
8
Make2D$Sichtbar$Kurven
10
121.952674
20
141.166579
11
120.202676
21
141.416579
0
LINE
8
Make2D$Sichtbar$Kurven
10
86.719192
20
12.704376
11
68.870727
21
136.704231
0
LINE
8
Make2D$Sichtbar$Kurven
10
120.202676
20
8.416755
11
91.668180
21
8.416755
0
LINE
8
Make2D$Sichtbar$Kurven
10
91.668180
20
8.416755
11
89.734432
21
8.684732
0
LINE
8
Make2D$Sichtbar$Kurven
10
89.734432
20
8.684732
11
88.941684
21
9.019702
0
LINE
8
Make2D$Sichtbar$Kurven
10
88.941684
20
9.019702
11
88.265018
21
9.488661
0
LINE
8
Make2D$Sichtbar$Kurven
10
88.265018
20
9.488661
11
87.704437
21
10.091607
0
LINE
8
Make2D$Sichtbar$Kurven
10
87.704437
20
10.091607
11
87.259938
21
10.828542
0
LINE
8
Make2D$Sichtbar$Kurven
10
87.259938
20
10.828542
11
86.719192
21
12.704376
0
LINE
8
Make2D$Sichtbar$Kurven
10
120.202676
20
8.416755
11
121.374550
21
8.494880
0
LINE
8
Make2D$Sichtbar$Kurven
10
121.374550
20
8.494880
11
122.390174
21
8.729254
0
LINE
8
Make2D$Sichtbar$Kurven
10
122.390174
20
8.729254
11
123.249548
21
9.119878
0
LINE
8
Make2D$Sichtbar$Kurven
10
123.249548
20
9.119878
11
123.952672
21
9.666751
0
LINE
8
Make2D$Sichtbar$Kurven
10
123.952672
20
9.666751
11
124.499546
21
10.369874
0
LINE
8
Make2D$Sichtbar$Kurven
10
124.499546
20
10.369874
11
124.890171
21
11.229246
0
LINE
8
Make2D$Sichtbar$Kurven
10
124.890171
20
11.229246
11
125.124546
21
12.244868
0
LINE
8
Make2D$Sichtbar$Kurven
10
125.124546
20
12.244868
11
125.202671
21
13.416739
0
LINE
8
Make2D$Sichtbar$Kurven
10
73.819718
20
142.416578
11
120.202676
21
142.416578
0
LINE
8
Make2D$Sichtbar$Kurven
10
68.870727
20
136.704231
11
68.821843
21
137.801014
0
LINE
8
Make2D$Sichtbar$Kurven
10
68.821843
20
137.801014
11
69.000547
21
138.831001
0
LINE
8
Make2D$Sichtbar$Kurven
10
69.000547
20
138.831001
11
69.406838
21
139.794192
0
LINE
8
Make2D$Sichtbar$Kurven
10
69.406838
20
139.794192
11
70.040716
21
140.690587
0
LINE
8
Make2D$Sichtbar$Kurven
10
70.040716
20
140.690587
11
70.837657
21
141.445708
0
LINE
8
Make2D$Sichtbar$Kurven
10
70.837657
20
141.445708
11
71.733137
21
141.985080
0
LINE
8
Make2D$Sichtbar$Kurven
10
71.733137
20
141.985080
11
72.727158
21
142.308703
0
LINE
8
Make2D$Sichtbar$Kurven
10
72.727158
20
142.308703
11
73.819718
21
142.416578
0
LINE
8
Make2D$Sichtbar$Kurven
10
125.202671
20
137.416584
11
125.124546
21
138.588457
0
LINE
8
Make2D$Sichtbar$Kurven
10
125.124546
20
138.588457
11
124.890171
21
139.604081
0
LINE
8
Make2D$Sichtbar$Kurven
10
124.890171
20
139.604081
11
124.499546
21
140.463455
0
LINE
8
Make2D$Sichtbar$Kurven
10
124.499546
20
140.463455
11
123.952672
21
141.166579
0
LINE
8
Make2D$Sichtbar$Kurven
10
123.952672
20
141.166579
11
123.249548
21
141.713454
0
LINE
8
Make2D$Sichtbar$Kurven
10
123.249548
20
141.713454
11
122.390174
21
142.104078
0
LINE
8
Make2D$Sichtbar$Kurven
10
122.390174
20
142.104078
11
121.374550
21
142.338453
0
LINE
8
Make2D$Sichtbar$Kurven
10
121.374550
20
142.338453
11
120.202676
21
142.416578
0
LINE
8
Make2D$Sichtbar$Kurven
10
124.202671
20
13.416739
11
124.202671
21
25.416716
0
LINE
8
Make2D$Sichtbar$Kurven
10
124.202671
20
125.416599
11
124.202671
21
137.416584
0
LINE
8
Make2D$Sichtbar$Kurven
10
125.202671
20
125.416599
11
125.202671
21
137.416584
0
LINE
8
Make2D$Sichtbar$Kurven
10
125.202671
20
13.416739
11
125.202671
21
25.416716
0
LINE
8
Make2D$Sichtbar$Kurven
10
124.202671
20
59.416682
11
81.202727
21
59.416682
0
LINE
8
Make2D$Sichtbar$Kurven
10
81.202727
20
59.416682
11
81.202727
21
63.416677
0
LINE
8
Make2D$Sichtbar$Kurven
10
81.202727
20
67.416672
11
124.202671
21
67.416672
0
LINE
8
Make2D$Sichtbar$Kurven
10
81.202727
20
63.416677
11
81.202727
21
67.416672
0
LINE
8
Make2D$Sichtbar$Kurven
10
124.202671
20
25.416716
11
124.202671
21
59.416682
0
LINE
8
Make2D$Sichtbar$Kurven
10
101.702700
20
63.416677
11
101.796449
21
62.760428
0
LINE
8
Make2D$Sichtbar$Kurven
10
101.796449
20
62.760428
11
102.077699
21
62.291678
0
LINE
8
Make2D$Sichtbar$Kurven
10
102.077699
20
62.291678
11
102.546448
21
62.010429
0
LINE
8
Make2D$Sichtbar$Kurven
10
102.546448
20
62.010429
11
103.202697
21
61.916679
0
LINE
8
Make2D$Sichtbar$Kurven
10
103.202697
20
61.916679
11
103.858946
21
62.010429
0
LINE
8
Make2D$Sichtbar$Kurven
10
103.858946
20
62.010429
11
104.327696
21
62.291678
0
LINE
8
Make2D$Sichtbar$Kurven
10
104.327696
20
62.291678
11
104.608945
21
62.760428
0
LINE
8
Make2D$Sichtbar$Kurven
10
104.608945
20
62.760428
11
104.702695
21
63.416677
0
LINE
8
Make2D$Sichtbar$Kurven
10
103.202697
20
64.916674
11
102.546448
21
64.822925
0
LINE
8
Make2D$Sichtbar$Kurven
10
102.546448
20
64.822925
11
102.077699
21
64.541675
0
LINE
8
Make2D$Sichtbar$Kurven
10
102.077699
20
64.541675
11
101.796449
21
64.072926
0
LINE
8
Make2D$Sichtbar$Kurven
10
101.796449
20
64.072926
11
101.702700
21
63.416677
0
LINE
8
Make2D$Sichtbar$Kurven
10
104.702695
20
63.416677
11
104.608945
21
64.072926
0
LINE
8
Make2D$Sichtbar$Kurven
10
104.608945
20
64.072926
11
104.327696
21
64.541675
0
LINE
8
Make2D$Sichtbar$Kurven
10
104.327696
20
64.541675
11
103.858946
21
64.822925
0
LINE
8
Make2D$Sichtbar$Kurven
10
103.858946
20
64.822925
11
103.202697
21
64.916674
0
LINE
8
Make2D$Sichtbar$Kurven
10
15.797153
20
6.956469
11
15.875742
21
5.919535
0
LINE
8
Make2D$Sichtbar$Kurven
10
15.875742
20
5.919535
11
16.111511
21
5.020859
0
LINE
8
Make2D$Sichtbar$Kurven
10
16.111511
20
5.020859
11
16.504458
21
4.260441
0
LINE
8
Make2D$Sichtbar$Kurven
10
16.504458
20
4.260441
11
17.054584
21
3.638281
0
LINE
8
Make2D$Sichtbar$Kurven
10
17.054584
20
3.638281
11
17.761889
21
3.154378
0
LINE
8
Make2D$Sichtbar$Kurven
10
17.761889
20
3.154378
11
18.626373
21
2.808734
0
LINE
8
Make2D$Sichtbar$Kurven
10
18.626373
20
2.808734
11
19.648036
21
2.601347
0
LINE
8
Make2D$Sichtbar$Kurven
10
19.648036
20
2.601347
11
20.826878
21
2.532218
0
LINE
8
Make2D$Sichtbar$Kurven
10
20.826878
20
2.532218
11
79.150356
21
2.532218
0
LINE
8
Make2D$Sichtbar$Kurven
10
79.150356
20
2.532218
11
80.498106
21
2.611195
0
LINE
8
Make2D$Sichtbar$Kurven
10
80.498106
20
2.611195
11
81.638585
21
2.848128
0
LINE
8
Make2D$Sichtbar$Kurven
10
81.638585
20
2.848128
11
82.571794
21
3.243016
0
LINE
8
Make2D$Sichtbar$Kurven
10
82.571794
20
3.243016
11
83.297732
21
3.795860
0
LINE
8
Make2D$Sichtbar$Kurven
10
83.297732
20
3.795860
11
83.816399
21
4.506658
0
LINE
8
Make2D$Sichtbar$Kurven
10
83.816399
20
4.506658
11
84.127796
21
5.375412
0
LINE
8
Make2D$Sichtbar$Kurven
10
84.127796
20
5.375412
11
84.231921
21
6.402121
0
LINE
8
Make2D$Sichtbar$Kurven
10
84.231921
20
6.402121
11
84.128777
21
7.586785
0
LINE
8
Make2D$Sichtbar$Kurven
10
20.826878
20
148.532036
11
19.648036
21
148.462907
0
LINE
8
Make2D$Sichtbar$Kurven
10
19.648036
20
148.462907
11
18.626373
21
148.255521
0
LINE
8
Make2D$Sichtbar$Kurven
10
18.626373
20
148.255521
11
17.761889
21
147.909878
0
LINE
8
Make2D$Sichtbar$Kurven
10
17.761889
20
147.909878
11
17.054584
21
147.425977
0
LINE
8
Make2D$Sichtbar$Kurven
10
17.054584
20
147.425977
11
16.504458
21
146.803819
0
LINE
8
Make2D$Sichtbar$Kurven
10
16.504458
20
146.803819
11
16.111511
21
146.043403
0
LINE
8
Make2D$Sichtbar$Kurven
10
16.111511
20
146.043403
11
15.875742
21
145.144731
0
LINE
8
Make2D$Sichtbar$Kurven
10
15.875742
20
145.144731
11
15.797153
21
144.107800
0
LINE
8
Make2D$Sichtbar$Kurven
10
15.797153
20
144.107800
11
15.797153
21
6.956469
0
LINE
8
Make2D$Sichtbar$Kurven
10
20.826878
20
148.532036
11
56.707106
21
148.532036
0
LINE
8
Make2D$Sichtbar$Kurven
10
61.685524
20
144.738124
11
61.141562
21
146.397961
0
LINE
8
Make2D$Sichtbar$Kurven
10
61.141562
20
146.397961
11
60.694420
21
147.050039
0
LINE
8
Make2D$Sichtbar$Kurven
10
60.694420
20
147.050039
11
60.130505
21
147.583558
0
LINE
8
Make2D$Sichtbar$Kurven
10
60.130505
20
147.583558
11
59.449816
21
147.998517
0
LINE
8
Make2D$Sichtbar$Kurven
10
59.449816
20
147.998517
11
58.652353
21
148.294916
0
LINE
8
Make2D$Sichtbar$Kurven
10
58.652353
20
148.294916
11
56.707106
21
148.532036
0
LINE
8
Make2D$Sichtbar$Kurven
10
61.685524
20
144.738124
11
84.128777
21
7.586785
 0 
ENDSEC
 0 
EOF